PathFileType	4	(X/Y/Z)	/Users/itak/Documents/Research/Walk-IL/dataset/trc/00550_00009.trc
DataRate	CameraRate	NumFrames	NumMarkers	Units	OrigDataRate	OrigDataStartFrame	OrigNumFrames
100.000000	100.000000	4	53	mm	100.000000	339	543
Frame#	Time	RPSI			LPSI			L3			STRN			T10			C7			CLAV			RBAK			LBAK			LSHO			LUPA			LAEL			LAOL			LWTS			LWPS			LFRA			LIFD			LHPS			LHTS			RSHO			RUPA			RAEL			RAOL			RWTS			RWPS			RFRA			RIFD			RHTS			RHPS			RBHD			LFHD			RFHD			LBHD			LHIP			RHIP			RASI			LASI			LKNE			LTHI			LANK			LTIP			LTOE			LMT1			LMT5			LHEE			RKNE			RTHI			RANK			RTIP			RTOE			RMT1			RMT5			RHEE			
		X1	Y1	Z1	X2	Y2	Z2	X3	Y3	Z3	X4	Y4	Z4	X5	Y5	Z5	X6	Y6	Z6	X7	Y7	Z7	X8	Y8	Z8	X9	Y9	Z9	X10	Y10	Z10	X11	Y11	Z11	X12	Y12	Z12	X13	Y13	Z13	X14	Y14	Z14	X15	Y15	Z15	X16	Y16	Z16	X17	Y17	Z17	X18	Y18	Z18	X19	Y19	Z19	X20	Y20	Z20	X21	Y21	Z21	X22	Y22	Z22	X23	Y23	Z23	X24	Y24	Z24	X25	Y25	Z25	X26	Y26	Z26	X27	Y27	Z27	X28	Y28	Z28	X29	Y29	Z29	X30	Y30	Z30	X31	Y31	Z31	X32	Y32	Z32	X33	Y33	Z33	X34	Y34	Z34	X35	Y35	Z35	X36	Y36	Z36	X37	Y37	Z37	X38	Y38	Z38	X39	Y39	Z39	X40	Y40	Z40	X41	Y41	Z41	X42	Y42	Z42	X43	Y43	Z43	X44	Y44	Z44	X45	Y45	Z45	X46	Y46	Z46	X47	Y47	Z47	X48	Y48	Z48	X49	Y49	Z49	X50	Y50	Z50	X51	Y51	Z51	X52	Y52	Z52	X53	Y53	Z53	

340	3.39	440.722900390625	966.4400024414062	290.5283508300781	435.7360534667969	976.5973510742188	157.5699157714844	438.5884399414062	1067.950073242188	213.6646728515625	672.517333984375	1257.651123046875	208.3543243408203	431.6372375488281	1190.92431640625	204.4369201660156	474.8666076660156	1466.419311523438	221.358154296875	651.4459838867188	1368.864379882812	213.8580017089844	404.5351257324219	1337.008911132812	300.0872497558594	443.2252502441406	1415.881958007812	127.2142639160156	544.2900390625	1445.632202148438	51.30470275878906	550.9805297851562	1324.356323242188	-35.64961242675781	616.2352294921875	1114.22900390625	-67.54764556884766	525.0396728515625	1081.804321289062	-34.33079147338867	772.5831909179688	915.6473999023438	0.5483394861221313	754.2938842773438	883.0999145507812	-78.12413787841797	665.2199096679688	1040.505859375	-69.21949005126953	831.5767822265625	755.6088256835938	-2.179388284683228	780.9710083007812	829.4719848632812	-66.97158813476562	817.9790649414062	849.9467163085938	-13.51275634765625	530.3424072265625	1424.79345703125	377.5138549804688	506.7778625488281	1358.634765625	440.8171691894531	483.477294921875	1070.888793945312	482.1825256347656	429.8207092285156	1058.602294921875	448.3268737792969	597.4441528320312	836.8018798828125	461.9678649902344	543.576904296875	823.5784912109375	522.93994140625	487.1844177246094	1015.584411621094	491.3740234375	586.7015380859375	662.9033813476562	470.829833984375	611.9637451171875	742.9953002929688	479.8367614746094	550.8036499023438	747.359375	521.6725463867188	569.7496948242188	1648.814453125	295.822509765625	725.330078125	1661.987426757812	158.1965789794922	709.928955078125	1656.749877929688	301.7818908691406	593.9772338867188	1652.25927734375	132.3666381835938	544.0558471679688	904.4927368164062	11.43066310882568	585.3214111328125	904.9254150390625	394.146240234375	659.82666015625	939.4667358398438	327.5899353027344	631.3897094726562	927.1358642578125	52.71669387817383	483.5132446289062	465.7236022949219	77.84757995605469	521.6221313476562	628.4932250976562	41.5709228515625	195.4945068359375	69.53767395019531	111.8396530151367	312.3301391601562	269.9161376953125	88.52145385742188	400.8147583007812	38.56900405883789	162.9059906005859	334.0281372070312	54.23563385009766	196.8717956542969	309.2359313964844	36.65311431884766	93.90156555175781	135.6406402587891	105.5967025756836	165.6610717773438	776.291259765625	506.027587890625	341.6412658691406	668.2364501953125	771.3373413085938	392.6140441894531	808.8909301757812	35.01068878173828	305.1995544433594	820.1531372070312	366.0585327148438	323.8465270996094	1025.17333984375	67.92149353027344	280.6461486816406	966.8860473632812	60.65636825561523	234.4952239990234	938.5761108398438	42.88803482055664	333.1903076171875	758.8772583007812	31.89825820922852	243.3036804199219	
341	3.4	451.8800659179688	967.4248046875	291.4445190429688	447.2040100097656	976.7239379882812	158.3777618408203	449.8241271972656	1068.292236328125	214.2866363525391	683.1824340820312	1258.571166992188	209.9273071289062	442.2923889160156	1191.510375976562	205.5991668701172	485.0074768066406	1466.95068359375	222.9170227050781	661.7988891601562	1369.736206054688	215.4367218017578	414.9337768554688	1337.403686523438	301.6144714355469	453.5079956054688	1416.356323242188	128.7670593261719	554.63037109375	1446.365234375	52.87240219116211	561.0599975585938	1324.913818359375	-33.9686279296875	624.6475830078125	1114.218994140625	-65.57533264160156	533.464111328125	1082.693725585938	-31.54938125610352	779.3806762695312	913.7578735351562	1.033691048622131	760.0280151367188	881.6135864257812	-77.54828643798828	672.8833618164062	1039.974853515625	-67.70732116699219	836.3158569335938	752.98486328125	-2.582890033721924	786.1591796875	827.6490478515625	-66.77928924560547	823.8353271484375	847.5404663085938	-13.55500793457031	540.6121215820312	1425.34765625	379.0971374511719	517.1663208007812	1359.105224609375	442.3664245605469	494.3056335449219	1071.292358398438	483.4642333984375	440.6556091308594	1059.08935546875	449.4970703125	607.461669921875	836.7283935546875	463.8366088867188	553.3876342773438	823.9236450195312	524.71337890625	497.8675842285156	1016.049194335938	492.6729736328125	595.461181640625	662.8265380859375	472.8531494140625	621.4383544921875	742.8794555664062	481.8600769042969	560.1181030273438	747.5877685546875	523.6043090820312	579.6273193359375	1649.669799804688	297.2374267578125	735.2435913085938	1662.8466796875	159.6206817626953	719.7796630859375	1657.758666992188	303.2320251464844	603.8671264648438	1652.949584960938	133.7996063232422	556.1250610351562	904.0733642578125	12.87633514404297	596.6720581054688	907.00927734375	395.9519958496094	671.0990600585938	941.3095703125	329.1743469238281	643.1279907226562	927.1461791992188	54.41361236572266	496.4488525390625	464.9049987792969	78.07843780517578	534.3941650390625	628.03759765625	42.60173034667969	198.1990661621094	75.10593414306641	111.1237258911133	320.4425048828125	273.1959838867188	88.27794647216797	400.8465881347656	38.56253433227539	162.8477478027344	335.2219543457031	55.32902908325195	196.807861328125	310.4157409667969	37.36819458007812	94.15135192871094	140.0547332763672	113.7726974487305	164.9674835205078	787.2444458007812	507.2098388671875	342.0191955566406	680.16064453125	773.2255249023438	393.7755126953125	810.0094604492188	35.49704360961914	305.3941345214844	828.8135986328125	366.1832885742188	323.7253723144531	1027.8173828125	62.31064224243164	279.2679748535156	968.7758178710938	56.90826416015625	233.7638854980469	940.317138671875	41.22282028198242	333.0274658203125	759.823486328125	33.13629913330078	243.5755920410156	
342	3.41	462.9720153808594	968.510986328125	292.2402954101562	458.635009765625	977.0015258789062	159.079345703125	460.94482421875	1068.859008789062	214.8317260742188	693.815185546875	1259.6552734375	211.5351867675781	452.8967895507812	1192.308471679688	206.7165679931641	495.1762084960938	1467.681640625	224.4558868408203	672.1525268554688	1370.777709960938	217.0320281982422	425.3373718261719	1338.030029296875	303.11962890625	463.8320617675781	1417.051391601562	130.2816467285156	565.0421142578125	1447.310180664062	54.45115280151367	571.1837158203125	1325.70556640625	-32.28613662719727	632.8746337890625	1114.414428710938	-63.64409255981445	541.7103271484375	1083.848022460938	-28.75863456726074	785.9130249023438	912.0302734375	1.466609954833984	765.4280395507812	880.285888671875	-76.99912261962891	680.3203125	1039.638061523438	-66.24224853515625	840.6749267578125	750.5048828125	-3.037684917449951	790.9747924804688	825.9769287109375	-66.600830078125	829.3706665039062	845.271240234375	-13.65860271453857	550.8908081054688	1426.123291015625	380.6711730957031	527.54296875	1359.81396484375	443.9167785644531	505.1087646484375	1071.96484375	484.8215942382812	451.4776916503906	1059.796142578125	450.7552795410156	617.6903686523438	837.0457763671875	465.7027587890625	563.468017578125	824.5947875976562	526.506591796875	508.5750732421875	1016.769592285156	494.048095703125	604.6840209960938	663.1383666992188	474.8475952148438	631.2471923828125	743.1680297851562	483.8313598632812	569.8059692382812	748.1546630859375	525.5343627929688	589.5571899414062	1650.667358398438	298.6654968261719	745.2063598632812	1663.855224609375	161.0514678955078	729.6767578125	1658.900390625	304.6943359375	613.792724609375	1653.80029296875	135.2496185302734	568.3584594726562	903.8179931640625	14.37416458129883	607.783203125	909.11767578125	397.7994079589844	682.2410278320312	943.2604370117188	330.9336547851562	654.9553833007812	927.3594970703125	56.32162094116211	510.2662048339844	464.0724487304688	78.06491088867188	547.724853515625	627.678466796875	43.539306640625	201.5013885498047	81.31170654296875	110.3801498413086	329.3800048828125	276.7505493164062	87.89857482910156	400.7882995605469	38.57274627685547	162.7816925048828	336.5666198730469	56.45959091186523	196.7534332275391	311.7848815917969	38.29313278198242	94.35434722900391	145.3273773193359	122.6979141235352	164.2627716064453	797.6353759765625	508.2191772460938	342.5735473632812	691.7111206054688	775.0986938476562	395.0493469238281	810.9010620117188	35.92440032958984	305.5742492675781	836.8202514648438	366.2120361328125	323.8132019042969	1029.976440429688	57.51115036010742	278.1938171386719	970.2685546875	53.86064910888672	233.2682189941406	941.6326293945312	40.11396408081055	333.0607299804688	760.6327514648438	34.05269241333008	243.7660827636719	
343	3.42	473.9704895019531	969.6876831054688	293.0002136230469	469.9954833984375	977.4287719726562	159.7453918457031	471.9378662109375	1069.635620117188	215.3813171386719	704.4000854492188	1260.874755859375	213.1583404541016	463.4648132324219	1193.27734375	207.8056793212891	505.352294921875	1468.582275390625	225.9668731689453	682.4894409179688	1371.960205078125	218.6294403076172	435.7309265136719	1338.8447265625	304.5850219726562	474.1714172363281	1417.933715820312	131.7531890869141	575.4883422851562	1448.429077148438	56.02612686157227	581.314208984375	1326.694213867188	-30.62332916259766	640.9249267578125	1114.788696289062	-61.78907775878906	549.780517578125	1085.22607421875	-26.01742172241211	792.1791381835938	910.460205078125	1.860716462135315	770.52001953125	879.10205078125	-76.46357727050781	687.5382690429688	1039.47119140625	-64.84147644042969	844.6935424804688	748.1832275390625	-3.479980707168579	795.4512329101562	824.4483642578125	-66.40435028076172	834.6012573242188	843.1464233398438	-13.7898588180542	561.1538696289062	1427.092895507812	382.2256469726562	537.87353515625	1360.735473632812	445.4583129882812	515.8580932617188	1072.876220703125	486.2572631835938	462.2605590820312	1060.691284179688	452.1089477539062	628.13720703125	837.73681640625	467.5507202148438	573.8178100585938	825.5581665039062	528.306396484375	519.2809448242188	1017.713806152344	495.5039367675781	614.4288940429688	663.8253784179688	476.8028564453125	641.4102172851562	743.8387451171875	485.7294616699219	579.8931274414062	749.0328369140625	527.4434204101562	599.5279541015625	1651.788208007812	300.0992431640625	755.1998291015625	1664.984130859375	162.4824371337891	739.6119995117188	1660.14208984375	306.1594848632812	623.7399291992188	1654.792846679688	136.7086181640625	580.633544921875	903.730712890625	15.93890380859375	618.6641235351562	911.1698608398438	399.6718444824219	693.2392578125	945.2365112304688	332.8377380371094	666.7879028320312	927.7651977539062	58.39920425415039	524.937744140625	463.2341613769531	77.75279998779297	561.5430297851562	627.41796875	44.33171463012695	205.4607696533203	88.16608428955078	109.6217346191406	339.1866760253906	280.5519714355469	87.37901306152344	400.6691284179688	38.57434844970703	162.7153625488281	338.115234375	57.65471267700195	196.6888275146484	313.3458862304688	39.47880935668945	94.48772430419922	151.5580902099609	132.3536224365234	163.5440216064453	807.3263549804688	508.9754943847656	343.2745971679688	702.7962036132812	776.8173828125	396.4196472167969	811.59716796875	36.28800582885742	305.7098693847656	844.1182250976562	366.1069946289062	324.0751037597656	1031.696533203125	53.51484680175781	277.3707580566406	971.4349975585938	51.45317077636719	232.9356536865234	942.5839233398438	39.44416427612305	333.1904602050781	761.2848510742188	34.68132019042969	243.8722839355469	
